<?xml version="1.0" standalone="no"?>
<svg xmlns:xlink="http://www.w3.org/1999/xlink" id="wave" style="transform:rotate(180deg); transition: 0.3s" viewBox="0 0 1440 240" version="1.1" xmlns="http://www.w3.org/2000/svg"><defs><linearGradient id="sw-gradient-0" x1="0" x2="0" y1="1" y2="0"><stop stop-color="rgba(150, 27, 129, 1)" offset="0%"/><stop stop-color="rgba(255, 181, 0, 1)" offset="100%"/></linearGradient></defs><path style="transform:translate(0, 0px); opacity:1" fill="url(#sw-gradient-0)" d="M0,24L18.5,40C36.9,56,74,88,111,88C147.7,88,185,56,222,56C258.5,56,295,88,332,108C369.2,128,406,136,443,140C480,144,517,144,554,140C590.8,136,628,128,665,124C701.5,120,738,120,775,120C812.3,120,849,120,886,108C923.1,96,960,72,997,80C1033.8,88,1071,128,1108,144C1144.6,160,1182,152,1218,148C1255.4,144,1292,144,1329,128C1366.2,112,1403,80,1440,56C1476.9,32,1514,16,1551,12C1587.7,8,1625,16,1662,20C1698.5,24,1735,24,1772,36C1809.2,48,1846,72,1883,104C1920,136,1957,176,1994,180C2030.8,184,2068,152,2105,148C2141.5,144,2178,168,2215,148C2252.3,128,2289,64,2326,52C2363.1,40,2400,80,2437,104C2473.8,128,2511,136,2548,144C2584.6,152,2622,160,2640,164L2658.5,168L2658.5,240L2640,240C2621.5,240,2585,240,2548,240C2510.8,240,2474,240,2437,240C2400,240,2363,240,2326,240C2289.2,240,2252,240,2215,240C2178.5,240,2142,240,2105,240C2067.7,240,2031,240,1994,240C1956.9,240,1920,240,1883,240C1846.2,240,1809,240,1772,240C1735.4,240,1698,240,1662,240C1624.6,240,1588,240,1551,240C1513.8,240,1477,240,1440,240C1403.1,240,1366,240,1329,240C1292.3,240,1255,240,1218,240C1181.5,240,1145,240,1108,240C1070.8,240,1034,240,997,240C960,240,923,240,886,240C849.2,240,812,240,775,240C738.5,240,702,240,665,240C627.7,240,591,240,554,240C516.9,240,480,240,443,240C406.2,240,369,240,332,240C295.4,240,258,240,222,240C184.6,240,148,240,111,240C73.8,240,37,240,18,240L0,240Z"/><defs><linearGradient id="sw-gradient-1" x1="0" x2="0" y1="1" y2="0"><stop stop-color="rgba(150, 27, 129, 1)" offset="0%"/><stop stop-color="rgba(255, 181, 0, 1)" offset="100%"/></linearGradient></defs><path style="transform:translate(0, 50px); opacity:0.9" fill="url(#sw-gradient-1)" d="M0,120L18.5,120C36.9,120,74,120,111,128C147.7,136,185,152,222,144C258.5,136,295,104,332,104C369.2,104,406,136,443,124C480,112,517,56,554,28C590.8,0,628,0,665,36C701.5,72,738,144,775,180C812.3,216,849,216,886,184C923.1,152,960,88,997,56C1033.8,24,1071,24,1108,20C1144.6,16,1182,8,1218,20C1255.4,32,1292,64,1329,68C1366.2,72,1403,48,1440,68C1476.9,88,1514,152,1551,176C1587.7,200,1625,184,1662,156C1698.5,128,1735,88,1772,68C1809.2,48,1846,48,1883,72C1920,96,1957,144,1994,148C2030.8,152,2068,112,2105,112C2141.5,112,2178,152,2215,144C2252.3,136,2289,80,2326,56C2363.1,32,2400,40,2437,68C2473.8,96,2511,144,2548,148C2584.6,152,2622,112,2640,92L2658.5,72L2658.5,240L2640,240C2621.5,240,2585,240,2548,240C2510.8,240,2474,240,2437,240C2400,240,2363,240,2326,240C2289.2,240,2252,240,2215,240C2178.5,240,2142,240,2105,240C2067.7,240,2031,240,1994,240C1956.9,240,1920,240,1883,240C1846.2,240,1809,240,1772,240C1735.4,240,1698,240,1662,240C1624.6,240,1588,240,1551,240C1513.8,240,1477,240,1440,240C1403.1,240,1366,240,1329,240C1292.3,240,1255,240,1218,240C1181.5,240,1145,240,1108,240C1070.8,240,1034,240,997,240C960,240,923,240,886,240C849.2,240,812,240,775,240C738.5,240,702,240,665,240C627.7,240,591,240,554,240C516.9,240,480,240,443,240C406.2,240,369,240,332,240C295.4,240,258,240,222,240C184.6,240,148,240,111,240C73.8,240,37,240,18,240L0,240Z"/><defs><linearGradient id="sw-gradient-2" x1="0" x2="0" y1="1" y2="0"><stop stop-color="rgba(150, 27, 129, 1)" offset="0%"/><stop stop-color="rgba(255, 181, 0, 1)" offset="100%"/></linearGradient></defs><path style="transform:translate(0, 100px); opacity:0.8" fill="url(#sw-gradient-2)" d="M0,192L18.5,184C36.9,176,74,160,111,140C147.7,120,185,96,222,104C258.5,112,295,152,332,168C369.2,184,406,176,443,156C480,136,517,104,554,76C590.8,48,628,24,665,36C701.5,48,738,96,775,132C812.3,168,849,192,886,200C923.1,208,960,200,997,196C1033.8,192,1071,192,1108,160C1144.6,128,1182,64,1218,68C1255.4,72,1292,144,1329,168C1366.2,192,1403,168,1440,140C1476.9,112,1514,80,1551,60C1587.7,40,1625,32,1662,52C1698.5,72,1735,120,1772,120C1809.2,120,1846,72,1883,72C1920,72,1957,120,1994,128C2030.8,136,2068,104,2105,92C2141.5,80,2178,88,2215,92C2252.3,96,2289,96,2326,108C2363.1,120,2400,144,2437,156C2473.8,168,2511,168,2548,168C2584.6,168,2622,168,2640,168L2658.5,168L2658.5,240L2640,240C2621.5,240,2585,240,2548,240C2510.8,240,2474,240,2437,240C2400,240,2363,240,2326,240C2289.2,240,2252,240,2215,240C2178.5,240,2142,240,2105,240C2067.7,240,2031,240,1994,240C1956.9,240,1920,240,1883,240C1846.2,240,1809,240,1772,240C1735.4,240,1698,240,1662,240C1624.6,240,1588,240,1551,240C1513.8,240,1477,240,1440,240C1403.1,240,1366,240,1329,240C1292.3,240,1255,240,1218,240C1181.5,240,1145,240,1108,240C1070.8,240,1034,240,997,240C960,240,923,240,886,240C849.2,240,812,240,775,240C738.5,240,702,240,665,240C627.7,240,591,240,554,240C516.9,240,480,240,443,240C406.2,240,369,240,332,240C295.4,240,258,240,222,240C184.6,240,148,240,111,240C73.8,240,37,240,18,240L0,240Z"/></svg>